<svg id="Layer_1" data-name="Layer 1" xmlns="http://www.w3.org/2000/svg" viewBox="0 0 1026.78 185.51"><defs><style>.cls-1{fill:#fff;}</style></defs><title>logo_lockup</title><path class="cls-1" d="M1812.5,2683.76l-15.77,15.77a5.59,5.59,0,0,0-.15,7.57,65.62,65.62,0,0,1,0,85.08,5.59,5.59,0,0,0,.15,7.57l15.77,15.77a5,5,0,0,0,7.32-.1,98.42,98.42,0,0,0,0-131.57A5,5,0,0,0,1812.5,2683.76Z" transform="translate(-1648.2 -2682.23)"/><path class="cls-1" d="M1696.66,2707.1a5.59,5.59,0,0,0-.15-7.57l-15.77-15.77a5,5,0,0,0-7.32.1,98.42,98.42,0,0,0,0,131.57,5,5,0,0,0,7.32.1l15.77-15.77a5.59,5.59,0,0,0,.15-7.57A65.62,65.62,0,0,1,1696.66,2707.1Z" transform="translate(-1648.2 -2682.23)"/><circle class="cls-1" cx="98.42" cy="67.41" r="39.37"/><path class="cls-1" d="M1681.21,2862.5a4.94,4.94,0,0,0,5,5.24H1807a4.94,4.94,0,0,0,5-5.24A65.62,65.62,0,0,0,1681.21,2862.5Z" transform="translate(-1648.2 -2682.23)"/><path class="cls-1" d="M1894.33,2814.6v-79.09c0-5.54,5.14-8.52,10.14-8.52s10.14,3,10.14,8.52v79.09c0,5.54-5.27,8.25-10.14,8.25S1894.33,2820.14,1894.33,2814.6Z" transform="translate(-1648.2 -2682.23)"/><path class="cls-1" d="M2031.83,2745.38v68.81c0,5.54-5.14,8.79-10.14,8.79s-10.14-3.25-10.14-8.79v-15.27c0-5.27.54-10.82,0.81-16.22,0.54-9.19.95-18.39,1.35-27.58,0.13-3.11.4-6.35,0.4-9.46a1.08,1.08,0,0,0-.95-1.22,1.1,1.1,0,0,0-1.22,1.08l-9.19,42.18c-2,9.19-7.16,15-17,15-10.14,0-15.14-5.68-17.17-15l-9.19-42.18a1.1,1.1,0,0,0-1.22-1.08,1.08,1.08,0,0,0-.95,1.22c0,3.11.27,6.35,0.41,9.46,0.4,9.19.94,18.39,1.35,27.58,0.27,5.41.81,10.95,0.81,16.22v15.27c0,5.54-5.14,8.79-10.14,8.79s-10.14-3.25-10.14-8.79v-68.81c0-11,7.43-18.39,18.39-18.39s16.9,5.68,19.2,16.09l3.38,15.55c1.89,8.79,2.43,17.71,4.19,26.5a1.17,1.17,0,0,0,1.08.81,0.9,0.9,0,0,0,.95-0.81c1.76-8.79,2.3-17.71,4.32-26.5l3.38-15.55c2.3-10.41,8.25-16.09,19.2-16.09S2031.83,2734.43,2031.83,2745.38Z" transform="translate(-1648.2 -2682.23)"/><path class="cls-1" d="M2109.17,2741.59l20.55,70.16a8.74,8.74,0,0,1,.4,2.7c0,5.68-4.73,8.52-9.87,8.52-5.41,0-9.06-2.7-10.54-8l-5.41-18.52h-30.69L2068.2,2815c-1.49,5.27-5.14,8-10.54,8-5.14,0-9.87-2.84-9.87-8.52a8.74,8.74,0,0,1,.4-2.7l20.55-70.16c2.84-9.6,10.27-14.6,20.14-14.6S2106.33,2732,2109.17,2741.59Zm-21,2.43-9.33,34.34H2099L2089.7,2744a0.82,0.82,0,0,0-.81-0.4A0.74,0.74,0,0,0,2088.21,2744Z" transform="translate(-1648.2 -2682.23)"/><path class="cls-1" d="M2143.92,2795.26a127.49,127.49,0,0,1,0-40.56c4.06-20.28,18.66-28.12,38.26-28.12,9.6,0,20.42,1.49,29.07,5.41,3.65,1.62,5.81,4.06,5.81,8.11,0,5.41-3.52,9.87-9.06,9.87a14.55,14.55,0,0,1-4.73-.81c-6.89-2-13.38-4.46-20.68-4.46-8.79,0-15.41,2.43-18.12,11.49-1.76,5.95-1.89,12.57-1.89,18.79s0.13,12.84,1.89,18.79c2.7,9.06,9.33,11.49,18.12,11.49,2.57,0,18-1.08,18-4.06v-15.28c-2,0-4.32.13-6.62,0.13-6.09,0-12.3-1.08-12.3-8.79a8.56,8.56,0,0,1,8.79-8.92h14.2c10.41,0,16.22,5,16.22,15.68v17.3c0,9.73-5.54,15.14-14.33,18.25a76.53,76.53,0,0,1-24.06,3.79C2162.71,2823.38,2148,2815.68,2143.92,2795.26Z" transform="translate(-1648.2 -2682.23)"/><path class="cls-1" d="M2308.19,2817.7c0,3.24-2.7,5.27-6.35,5.27-3.11,0-5.54-1.49-6.49-4.33l-7.3-24.33h-34.88l-7.44,24.33c-0.81,2.84-3.24,4.33-6.49,4.33-3.51,0-6.22-2-6.22-5.27a10.66,10.66,0,0,1,.27-1.89l24.2-79.49c1.49-5.14,5.81-9.33,13.11-9.33s11.49,4.19,13.11,9.33l24.06,79.49A5.33,5.33,0,0,1,2308.19,2817.7Zm-23.66-35-13.25-43.26a0.88,0.88,0,0,0-.68-0.81,1,1,0,0,0-.81.81l-13.11,43.26h27.85Z" transform="translate(-1648.2 -2682.23)"/><path class="cls-1" d="M2391.07,2817.3c0,2.84-2,5.68-6.35,5.68a7.16,7.16,0,0,1-5.81-2.57l-28.26-35.69c-3.24-4.19-4.73-4.87-7.16-4.87h-6.62v37.85c0,3.11-2.84,5.27-6.35,5.27s-6.35-2.16-6.35-5.27v-73.81c0-8.52,5.95-16.36,17-16.36h19.2c18.93,0,28.93,11.09,28.93,26.09,0,14.6-9.46,25.42-27.17,26.09a28.48,28.48,0,0,1,4.06,4.06l23.52,29.88A5.57,5.57,0,0,1,2391.07,2817.3Zm-54.21-49.07h23.52c9.19,0,16.22-4.19,16.22-14.6s-7-14.47-16.22-14.47h-19.2c-3.11,0-4.32,1.76-4.32,4.46v24.61Z" transform="translate(-1648.2 -2682.23)"/><path class="cls-1" d="M2472.73,2816.62a5.61,5.61,0,0,1-5.81,5.81h-46c-6.76,0-11.63-5-11.63-11.22v-68c0-8.65,6.76-15.68,16.22-15.68h40.28a5.81,5.81,0,1,1,0,11.63h-39.75a3.91,3.91,0,0,0-4.06,4.06v24.33h40.56a5.81,5.81,0,0,1,0,11.63H2422v31.63h44.88A5.61,5.61,0,0,1,2472.73,2816.62Z" transform="translate(-1648.2 -2682.23)"/><path class="cls-1" d="M2539.12,2814.73l-31.23-75.44a0.76,0.76,0,0,0-.81-0.68c-0.41,0-.68.4-0.68,1.08v78c0,3.11-2.84,5.27-6.35,5.27s-6.35-2.16-6.35-5.27v-77.87c0-7,5.14-12.84,13.38-12.84a13.45,13.45,0,0,1,12.71,8.25l31.23,75.44a1,1,0,0,0,.81.67,0.82,0.82,0,0,0,.68-0.95v-78.14c0-3.11,2.84-5.14,6.35-5.14s6.35,2,6.35,5.14v77.87c0,7-5.14,12.84-13.38,12.84A13.2,13.2,0,0,1,2539.12,2814.73Z" transform="translate(-1648.2 -2682.23)"/><path class="cls-1" d="M2656.34,2817.7c0,3.24-2.7,5.27-6.35,5.27-3.11,0-5.54-1.49-6.49-4.33l-7.3-24.33h-34.88l-7.44,24.33c-0.81,2.84-3.24,4.33-6.49,4.33-3.51,0-6.22-2-6.22-5.27a10.66,10.66,0,0,1,.27-1.89l24.2-79.49c1.49-5.14,5.81-9.33,13.11-9.33s11.49,4.19,13.11,9.33l24.06,79.49A5.33,5.33,0,0,1,2656.34,2817.7Zm-23.66-35-13.25-43.26a0.88,0.88,0,0,0-.68-0.81,1,1,0,0,0-.81.81l-13.11,43.26h27.85Z" transform="translate(-1648.2 -2682.23)"/><path class="cls-1" d="M2675,2718.69a13.59,13.59,0,1,1-13.57-13.64A13.64,13.64,0,0,1,2675,2718.69Zm-25.07,0a11.48,11.48,0,1,0,11.5-11.54A11.53,11.53,0,0,0,2649.91,2718.69Zm18.12,7a1.37,1.37,0,0,1-1.47,1.33,1.4,1.4,0,0,1-1.12-.49l-5.22-6.1a1.47,1.47,0,0,0-1.12-.73h-0.74v6.06a1.41,1.41,0,0,1-2.8,0v-12.06a3,3,0,0,1,3.37-3.15h3.37a5.84,5.84,0,0,1,4.24,1.47,4.31,4.31,0,0,1,1.23,3.12c0,2.07-1.26,4.28-4.73,4.56a4.9,4.9,0,0,1,1,.91l3.75,4.38A1.08,1.08,0,0,1,2668,2725.67Zm-9.68-12v3.43h3.93c1.82,0,2.66-.63,2.66-2s-0.88-2-2.66-2H2659A0.53,0.53,0,0,0,2658.36,2713.71Z" transform="translate(-1648.2 -2682.23)"/></svg>