<svg id="Layer_1" data-name="Layer 1" xmlns="http://www.w3.org/2000/svg" viewBox="0 0 2362.48 421.01"><defs><style>.cls-1{fill:#fff;}</style></defs><title>logo</title><circle class="cls-1" cx="223.35" cy="152.98" r="89.34"/><path class="cls-1" d="M-5618.56-3611.36a11.21,11.21,0,0,0,11.44,11.9h274a11.21,11.21,0,0,0,11.44-11.9,148.91,148.91,0,0,0-148.43-137A148.91,148.91,0,0,0-5618.56-3611.36Z" transform="translate(5693.48 4020.47)"/><path class="cls-1" d="M-5364.84-3762.2" transform="translate(5693.48 4020.47)"/><path class="cls-1" d="M-5320.62-4017l-35.8,35.8a12.69,12.69,0,0,0-.34,17.17,148.31,148.31,0,0,1,35.53,96.54,148.31,148.31,0,0,1-35.53,96.54,12.69,12.69,0,0,0,.34,17.17l35.8,35.8a11.44,11.44,0,0,0,16.62-.22,222.53,222.53,0,0,0,57.22-149.29A222.53,222.53,0,0,0-5304-4016.78,11.44,11.44,0,0,0-5320.62-4017Z" transform="translate(5693.48 4020.47)"/><path class="cls-1" d="M-5583.5-3964a12.69,12.69,0,0,0-.34-17.17l-35.8-35.8a11.44,11.44,0,0,0-16.62.22,222.53,222.53,0,0,0-57.22,149.29,222.53,222.53,0,0,0,57.22,149.29,11.44,11.44,0,0,0,16.62.22l35.8-35.8a12.69,12.69,0,0,0,.34-17.17,148.31,148.31,0,0,1-35.53-96.54A148.31,148.31,0,0,1-5583.5-3964Z" transform="translate(5693.48 4020.47)"/><path class="cls-1" d="M-5364.84-3762.2" transform="translate(5693.48 4020.47)"/><path class="cls-1" d="M-5088.81-3718.58V-3901c0-12.79,11.85-19.65,23.39-19.65s23.39,6.86,23.39,19.65v182.46c0,12.79-12.16,19-23.39,19S-5088.81-3705.79-5088.81-3718.58Z" transform="translate(5693.48 4020.47)"/><path class="cls-1" d="M-4771.62-3878.27v158.76c0,12.79-11.85,20.28-23.39,20.28s-23.39-7.49-23.39-20.28v-35.24c0-12.17,1.25-25,1.87-37.43,1.25-21.21,2.18-42.42,3.12-63.63,0.31-7.17.94-14.66,0.94-21.83,0-1.24-.63-2.81-2.19-2.81-1.87,0-2.49.94-2.8,2.5l-21.21,97.31c-4.68,21.21-16.53,34.62-39.3,34.62-23.39,0-34.93-13.1-39.61-34.62L-4938.8-3878c-0.31-1.56-.94-2.5-2.81-2.5-1.56,0-2.18,1.56-2.18,2.81,0,7.17.63,14.66,0.94,21.83,0.94,21.21,2.18,42.42,3.12,63.63,0.63,12.47,1.87,25.26,1.87,37.43v35.24c0,12.79-11.85,20.28-23.39,20.28s-23.39-7.49-23.39-20.28v-158.76c0-25.26,17.15-42.42,42.42-42.42,25,0,39,13.1,44.29,37.12l7.8,35.87c4.37,20.28,5.61,40.86,9.67,61.13a2.72,2.72,0,0,0,2.5,1.87,2.09,2.09,0,0,0,2.18-1.87c4.05-20.28,5.3-40.86,10-61.13l7.8-35.87c5.3-24,19-37.12,44.29-37.12C-4788.78-3920.69-4771.62-3903.54-4771.62-3878.27Z" transform="translate(5693.48 4020.47)"/><path class="cls-1" d="M-4593.22-3887l47.41,161.87a20.19,20.19,0,0,1,.94,6.24c0,13.1-10.92,19.65-22.77,19.65-12.48,0-20.9-6.24-24.33-18.4l-12.47-42.73h-70.8l-12.48,42.73c-3.43,12.17-11.85,18.4-24.33,18.4-11.85,0-22.77-6.55-22.77-19.65a20.19,20.19,0,0,1,.94-6.24l47.41-161.87c6.55-22.15,23.7-33.69,46.47-33.69C-4616.93-3920.69-4599.77-3909.15-4593.22-3887Zm-48.34,5.61-21.52,79.22h46.47l-21.52-79.22a1.89,1.89,0,0,0-1.87-.94A1.72,1.72,0,0,0-4641.56-3881.4Z" transform="translate(5693.48 4020.47)"/><path class="cls-1" d="M-4513.07-3763.18c-3.12-15.28-3.74-31.19-3.74-46.78s0.63-31.51,3.74-46.79c9.36-46.78,43-64.87,88.27-64.87,22.14,0,47.1,3.43,67.06,12.47,8.42,3.74,13.41,9.36,13.41,18.71,0,12.48-8.11,22.77-20.9,22.77a33.41,33.41,0,0,1-10.92-1.87c-15.91-4.68-30.88-10.29-47.72-10.29-20.27,0-35.56,5.61-41.79,26.51-4.05,13.72-4.37,29-4.37,43.36s0.31,29.63,4.37,43.35c6.24,20.9,21.52,26.51,41.79,26.51,5.93,0,41.48-2.5,41.48-9.36v-35.24c-4.68,0-10,.31-15.29.31-14,0-28.38-2.49-28.38-20.27,0-11.85,8.42-20.58,20.27-20.58H-4373c24,0,37.43,11.54,37.43,36.18v39.92c0,22.46-12.79,34.93-33.06,42.1-17.15,5.93-37.43,8.74-55.52,8.74C-4469.72-3698.31-4503.71-3716.09-4513.07-3763.18Z" transform="translate(5693.48 4020.47)"/><path class="cls-1" d="M-4134.12-3711.41c0,7.49-6.24,12.17-14.66,12.17-7.17,0-12.79-3.44-15-10l-16.84-56.14h-80.47l-17.15,56.14c-1.87,6.54-7.49,10-15,10-8.11,0-14.35-4.68-14.35-12.17a24.51,24.51,0,0,1,.63-4.37l55.83-183.4c3.43-11.85,13.41-21.52,30.25-21.52,16.53,0,26.51,9.67,30.25,21.52l55.52,183.4A12.19,12.19,0,0,1-4134.12-3711.41Zm-54.58-80.78-30.56-99.81c-0.31-1.25-.94-1.87-1.56-1.87-0.94,0-1.25.62-1.87,1.87l-30.25,99.81h64.25Z" transform="translate(5693.48 4020.47)"/><path class="cls-1" d="M-3942.93-3712.34c0,6.55-4.68,13.1-14.66,13.1-5.61,0-10.61-2.19-13.41-5.93l-65.19-82.34c-7.48-9.67-10.92-11.23-16.53-11.23H-4068v87.33c0,7.17-6.55,12.17-14.66,12.17s-14.66-5-14.66-12.17V-3881.7c0-19.65,13.72-37.74,39.3-37.74h44.29c43.67,0,66.75,25.58,66.75,60.2,0,33.69-21.83,58.63-62.69,60.2a66,66,0,0,1,9.36,9.35l54.27,68.93A12.87,12.87,0,0,1-3942.93-3712.34ZM-4068-3825.56h54.27c21.21,0,37.43-9.67,37.43-33.69,0-23.71-16.22-33.37-37.43-33.37H-4058c-7.17,0-10,4.05-10,10.29v56.77Z" transform="translate(5693.48 4020.47)"/><path class="cls-1" d="M-3754.55-3713.9c0,7.49-5.3,13.41-13.41,13.41h-106c-15.6,0-26.82-11.54-26.82-25.88v-156.89c0-20,15.6-36.18,37.43-36.18h92.95c8.11,0,13.41,5.93,13.41,13.42s-5.3,13.41-13.41,13.41h-91.7a9,9,0,0,0-9.36,9.35v56.15h93.57c8.11,0,13.41,5.92,13.41,13.41s-5.3,13.41-13.41,13.41h-93.57v73H-3768C-3759.85-3727.31-3754.55-3721.39-3754.55-3713.9Z" transform="translate(5693.48 4020.47)"/><path class="cls-1" d="M-3601.41-3718.27l-72-174c-0.31-.94-0.63-1.56-1.87-1.56-0.94,0-1.56.94-1.56,2.49v180c0,7.17-6.55,12.17-14.66,12.17s-14.66-5-14.66-12.17v-179.65c0-16.22,11.85-29.63,30.88-29.63,14.35,0,25,8.42,29.32,19l72.05,174a2.3,2.3,0,0,0,1.87,1.56c0.62,0,1.56-.62,1.56-2.18v-180.28c0-7.17,6.55-11.85,14.66-11.85s14.66,4.68,14.66,11.85v179.65c0,16.22-11.85,29.63-30.87,29.63C-3586.44-3699.24-3596.73-3707-3601.41-3718.27Z" transform="translate(5693.48 4020.47)"/><path class="cls-1" d="M-3331-3711.41c0,7.49-6.24,12.17-14.66,12.17-7.17,0-12.79-3.44-15-10l-16.84-56.14h-80.47l-17.15,56.14c-1.87,6.54-7.49,10-15,10-8.11,0-14.35-4.68-14.35-12.17a24.51,24.51,0,0,1,.63-4.37l55.83-183.4c3.43-11.85,13.41-21.52,30.25-21.52,16.53,0,26.51,9.67,30.25,21.52l55.52,183.4A12.19,12.19,0,0,1-3331-3711.41Zm-54.58-80.78-30.56-99.81c-0.31-1.25-.94-1.87-1.56-1.87-0.94,0-1.25.62-1.87,1.87l-30.25,99.81h64.25Z" transform="translate(5693.48 4020.47)"/></svg>